<?xml version="1.0" encoding="utf-8"?>
<!-- Generator: Adobe Illustrator 27.9.6, SVG Export Plug-In . SVG Version: 9.03 Build 54986)  -->
<svg version="1.1" baseProfile="basic" id="Layer_1"
	 xmlns="http://www.w3.org/2000/svg" xmlns:xlink="http://www.w3.org/1999/xlink" x="0px" y="0px" viewBox="0 0 1875 1890"
	 xml:space="preserve">
<g>
	<path fill="white" d="M1722.5,797.5c-3.8,77.7-7.1,174.4-15.2,270.8c-3.5,41.5-2.5,83.5-3.5,125.2c-2,77.9-2.9,155.6-20.5,232.3
		c-37.5,163.8-141.5,258-302.6,293.8c-71.5,15.9-144.2,18.6-217.1,16.1c-43.1-1.5-86.1-7.6-129.1-6.7
		c-51.7,1.1-99.3-68.7-104.1-108.7c-2.2-18.6,11.3-28.3,28.6-33.7c13.8-4.3,32.5-1.2,40.2-14.6c7.5-13-2.3-28.6-4-43.1
		c-2-17.4-3.1-34.9-3.6-52.4c-2.9-115.8-5.5-231.5-8.3-347.3c-0.2-8.1,0.2-16.3-0.8-24.2c-4.9-38.7-5-40-45.3-40.4
		c-25.5-0.3-45-12-59.9-28.9c-15.8-17.9-28.2-39.6-36.1-62.6c-8.8-25.7-0.5-41.1,25.9-49c24.5-7.3,49.5-12.7,75.3-13.7
		c19.2-0.7,27-8.9,28.3-30.1c2.3-40,3.6-80.4,12.8-119.9c6.2-26.4,15.7-51.5,27.7-75.6c49.1-99,133.6-129.6,242.3-123.2
		c40.4,2.4,75.6,26.9,103.2,58.3c11.2,12.7,15.3,27.6,15.3,44.7c-0.1,35-13.8,65.5-30.8,94.6c-10.9,18.7-21.8,19.8-39.9,6.8
		c-9.7-7-19.7-14.8-26.6-24.4c-19.5-27.2-47-32.1-75.6-24.6c-44.5,11.7-75.2,39.8-86.4,86.3c-6.6,27.7-6.9,55.9-7.9,84.1
		c-0.5,13.5,6,19.7,19.3,19.6c20.2-0.1,40.4,0.2,60.7,0.2c21.7,0.1,42.4,2.7,62.1,13.6c25.6,14.3,31.6,23.7,26.9,51
		c-0.7,4-1.9,7.9-3.3,11.6c-31.1,84.6-31,84.8-114.1,79.3c-5.4-0.4-10.8-0.9-16.1-0.8c-25.7,0.4-27.3,1.5-25.5,27.4
		c8.4,125.1,6.4,250.4,5.9,375.6c-0.1,29.5-3.6,59-6.8,88.3c-1.6,15.2,3.4,24.5,18.5,24.5c103.1,0.2,207.6,13.7,303.3-43.3
		c71.9-42.8,117.5-100.1,125.6-185.7c3.8-40.2,6.6-80.3,7.4-120.6c2.1-108.9,8.7-217.6,15.3-326.3c6.7-110.2,9-219.7-14.6-329
		c-15-69.6-56.8-106.8-121.9-124.7c-55.2-15.2-111.9-17.5-168.3-17.7c-95.7-0.4-191.3-3.6-286.8-9c-76.6-4.3-153-13.3-229.9-12.7
		c-80.5,0.6-157.9,14.4-231.7,47.5c-22.2,10-43,22.2-62.9,36.2c-38.5,27.1-60.9,62.6-65.1,110.6c-4.6,53.6-6.5,107.4-11.1,160.8
		c-8.9,104.7-8,209.8-10.5,314.4c-2.6,112.5,5.4,226,41.5,334.7c6.3,19.1,14.7,37.6,23.4,55.7c19.8,40.9,50.8,69.3,95.9,79.7
		c28.8,6.6,57.9,12.4,87,17.7c23.9,4.4,47.1,9.6,69.3,20.7c15.8,7.9,21.3,17.7,20.8,34.6c-1.7,61.6-33.7,94.7-95.2,94.9
		c-94.3,0.3-179.6-25.8-242.6-99c-50.7-58.9-81.1-129.9-100.1-205.2c-20.5-81.1-28.5-163.8-32.2-247.4c-3.2-72.9-2-145.7,1.6-218.2
		c5.9-120.7,6-241.7,19.5-362.2c17.2-152.7,102.3-244.2,244.6-288c102.2-31.5,206.4-46.9,314.2-42.1c126.3,5.6,252.2,17.5,379,18.9
		c74.9,0.8,151-3.3,225.5,11.6c138.3,27.7,229.6,105.5,264.1,245.3C1718.1,611.9,1723.4,694.8,1722.5,797.5z"/>
</g>
</svg>
