<?xml version="1.0" encoding="utf-8"?>
<!-- Generator: Adobe Illustrator 27.9.6, SVG Export Plug-In . SVG Version: 9.03 Build 54986)  -->
<svg version="1.1" baseProfile="basic" id="Layer_1"
	 xmlns="http://www.w3.org/2000/svg" xmlns:xlink="http://www.w3.org/1999/xlink" x="0px" y="0px" viewBox="0 0 1886 1824"
	 xml:space="preserve">
<g>
	<path fill="white" d="M281.5,970.9c-6-143,3.6-285.7,6.1-428.6c2.6-149.3,87.3-249.2,220.5-289.8c95.9-29.3,194.3-30.2,292.4-25.2
		c156.1,7.9,312.2,11.1,468.5,11.3c55,0.1,110.2,3.4,164.8,11.9c90.9,14.1,155.4,63.5,197,144.6c34.9,68.1,51.4,140.8,56,216.9
		c6.6,107.9,1.5,215.8-1.7,323.4c-3.4,115.5-11.2,231-15.7,346.6c-2,52-8.3,104.2-27.6,154.2c-52.2,135.1-147.7,202.5-292.6,206.9
		c-47.3,1.4-94-7.6-141.2-5.1c-39,2-78,3.7-117.1,4.4c-20.2,0.4-40.4-1.1-60.5-3c-43.1-3.9-79.1-33.8-90.8-74.3
		c-5-17.1,1.6-30.5,21.2-36.6c25.7-8,51.9-12.8,79.4-11.8c97,3.4,194,6.6,291.1,7.7c47.9,0.5,93.2-12.5,133.3-40.2
		c62.2-43,92.7-102.5,95.2-177.8c4.9-143.9,12.8-287.6,17.5-431.5c2.5-78.1,3.8-156.2,3.4-234.2c-0.3-58-10.7-114.9-33.5-169.1
		c-22.8-54-61.3-86.9-120-96c-48-7.5-96.3-11.8-144.8-11.3c-140.3,1.7-280.4-2.5-420.4-9.3c-70.1-3.4-140.1-3.3-210.2-3.3
		c-54.7,0-106.6,12.8-154.9,39.6c-69.3,38.6-108,94.6-105.6,176.4c1.4,45.8,1.9,91.8-0.1,137.5c-6.2,148.2-6.2,296.5-4.4,444.7
		c0.7,60.2,3.6,120.9,21.1,179.6c14.1,47.4,37.3,89,71.8,124.7c43.7,45.1,96.9,66.6,159.2,67.1c16.2,0.1,32.5-0.9,48.5,0.4
		c33.9,2.9,46.7,18.3,37.1,51.1c-14.4,49.2-25,74-89.2,73.6c-102-0.6-182-47-244.4-122.6c-64-77.6-97.7-168.3-105.5-270
		C278.4,1159.2,284.5,1065.1,281.5,970.9z"/>
	<path fill="white" d="M641.8,892.4c-2-45.7,6.9-89,22.2-131.2c23.2-64.2,64.6-111.2,128.6-136.8c85.4-34.1,173.5-52.4,264.4-30.2
		c97.5,23.8,174.1,77.5,215.5,172.7c22.3,51.4,18.7,102.2-7.5,151.3c-11.9,22.2-22.3,24.6-40.6,7.3c-19.9-18.9-32.6-43.3-37-70.1
		c-11.2-67.6-54.4-106.6-114.8-128.8c-84.3-31-166.8-24-245.9,18.4c-45.7,24.5-74.3,61.5-76.9,115.1c-5,100.5,19.8,191,100.2,256.7
		c84,68.7,205.6,63.6,285.6-38.2c18.7-23.9,38.8-39.9,69.4-42.2c39.5-3,53.6,11,45,49.5c-11.8,52.8-38.5,97.1-81.2,131.5
		c-99.4,80-259.8,99.1-373.1,4.1C693,1135.1,647.9,1022.9,641.8,892.4z"/>
	<path fill="white" d="M1404.5,562.2c2.4,34.2-6.8,60.7-24.4,83.7c-17.5,22.9-39.7,25.6-62.5,7.2c-32.9-26.5-53-60.3-51.7-104
		c1.1-35.7,13.6-52.2,48-59.4c20.2-4.2,39.7-11.6,61.8,2C1406.3,510.6,1399.9,540,1404.5,562.2z"/>
</g>
</svg>
