<?xml version="1.0" encoding="utf-8"?>
<!-- Generator: Adobe Illustrator 27.9.6, SVG Export Plug-In . SVG Version: 9.03 Build 54986)  -->
<svg version="1.1" baseProfile="basic" id="Layer_1"
	 xmlns="http://www.w3.org/2000/svg" xmlns:xlink="http://www.w3.org/1999/xlink" x="0px" y="0px" viewBox="0 0 1682.2 1751"
	 xml:space="preserve">
<g>
	<path fill="white" d="M547.1,1454.2c30-6.7,54.9-12.4,79.8-17.9c6.6-1.4,13.2-3.5,19.8-3.4c34.9,0.4,51.6,22.2,42.3,55.7
		c-12.9,46.7-35.4,86.9-77.8,113.9c-23.8,15.2-45.9,33.2-69.9,48.2c-42.9,26.7-70.6,19.5-98.8-22.7
		c-32.6-48.7-49.1-101.3-41.8-160.4c5.7-46.7,9.6-93.6,16.3-140.1c6.5-44.5-2.2-82-28.7-120.7c-68.1-99.5-120.5-207-143-327.2
		c-36.2-193.7,12.1-366.1,135.1-517.2c99.1-121.7,234.1-180.7,385.1-210.8c214.7-42.8,404.1,11.5,568.7,150.1
		c129.4,108.9,199.8,251,210,421.6c13.9,233.8-69.6,432.3-221.7,604.4c-53,60-120.1,103.3-195.4,133.4
		c-75.4,30.2-145.2,15.4-213.4-20.8c-10.9-5.8-19-14.8-25.5-25.3c-19-31-14-43.7,21.1-55.2c54.9-18,112.4-28.6,164.6-54.2
		c167-81.9,265.9-218.7,314.4-394.7c22.5-81.8,23.6-164.6,5.1-247.8c-31.3-140.7-118.3-236.2-243.8-299.3
		C934,255.3,688.7,288.9,512,453.5c-123.1,114.6-161.2,257-122.1,420c21.3,88.8,59.6,170.1,112.1,244.7c4.7,6.6,8.8,13.7,14.1,19.7
		c48.6,54.1,51.4,118.7,44,186.2C555.5,1366.5,545.8,1408.5,547.1,1454.2z"/>
	<path fill="white" d="M728.5,679.4c-10.4,24.7-5.7,46.1,0.4,66c37.1,121,116.1,207.8,225.2,268c43.5,24,67.7,19,94.9-9.6
		c11.3-11.9,15.5-22.5,3.2-38c-20.1-25.2-40.9-50.1-55.6-79.1c-16.2-31.9-9.4-46.4,25.5-46.1c55,0.4,106.6,16.1,150.8,49.4
		c29,21.9,38.7,54.9,35.4,89.9c-4.8,50.5-24.5,96.4-52,138.4c-40.9,62.3-131.2,89.9-208.7,66.3c-58.2-17.8-104.7-54.6-150.6-91.9
		c-109.2-88.7-180.4-202.2-211.6-339.1c-12.7-55.9-7.1-112.7,20.2-165c17.3-33.2,39.7-60.9,81.1-65c9.2-0.9,18.1-5,27.3-7.4
		c25.5-6.8,48.2-4.8,73,8.8c47.4,25.9,73.6,68.7,88.4,115.2c13.1,41.3-12.7,80.6-34,116.2c-7,11.6-21.7,14.8-35.3,3.8
		c-16.8-13.6-33.5-26.8-45.8-45.1C752.1,703.1,746.6,688.5,728.5,679.4z"/>
</g>
</svg>
